<?xml version="1.0" encoding="UTF-8"?>
<svg enable-background="new 0 0 412 240" version="1.1" viewBox="0 0 412 240" xml:space="preserve" xmlns="http://www.w3.org/2000/svg">
<style type="text/css">
	.st0{fill:#940F4C;}
	.st1{fill:#316F41;}
</style>
<path class="st0" d="m170.5 6.6c-1.6 0.2-7.3 0.9-12.5 1.5-45.8 5.1-92.3 18.8-140.1 41.2-5.3 2.5-10 5-10.3 5.5-1.7 2.8 17.6 13.2 24.4 13.2 1.6 0 6.2-1.5 10.2-3.4 36.2-16.9 60.3-25.7 91.8-33.6 32.9-8.2 49.9-10.3 83.5-10.4 32 0 47.7 1.9 75 9.4 25 6.9 52.9 18.1 74.5 30 20.1 11.1 23.7 12.8 28.7 14 5.5 1.3 9.3 0.3 9.3-2.5 0-1.8-13.2-9.7-33.5-19.9-46.7-23.6-85.3-35.9-135.5-43.2-9.9-1.5-58.4-2.8-65.5-1.8z"/>
<path d="m112 98.8c-1.9 1-5 4-6.7 6.6-2.9 4.2-3.3 5.7-3.3 11 0 11.7 7.8 19.6 19.5 19.6 3.1 0 7.1-0.6 8.9-1.4 3.6-1.5 8.6-6.3 8.6-8.3 0-2.1-4.5-1.5-6.6 0.8-6.1 6.8-17.2 6.2-22.6-1.2-2.8-3.7-3.4-12.6-1.1-16.8 4.8-9.2 16.9-10.8 23.7-3.2 2.1 2.3 6.6 2.9 6.6 0.8 0-1.5-5.5-6.9-8.7-8.6-3.5-1.8-14.3-1.4-18.3 0.7z"/>
<path d="m148 116.5v19.5h10.5c9.8 0 10.5-0.1 10.5-2 0-1.8-0.7-2-8-2h-8.1l0.3-6.8 0.3-6.7 6.8-0.3c5.9-0.3 6.7-0.5 6.7-2.2 0-1.8-0.7-2-7-2h-7v-12.9l7.7-0.3c6.5-0.3 7.8-0.6 8.1-2.1s-0.7-1.7-10.2-1.7h-10.6v19.5z"/>
<path d="m176.7 97.7c-0.4 0.3-0.7 9.1-0.7 19.5v18.8h6v-16.1l2.7 0.3c2.1 0.2 3.5 1.8 6.7 7 5.2 8.5 5.8 9 9.1 8.6l2.7-0.3-3.3-5c-1.9-2.8-4.2-6.2-5.1-7.7l-1.8-2.7 3.5-1.7c8.3-3.9 8.5-15.7 0.5-19.9-3-1.5-19-2.2-20.3-0.8zm18.8 5.8c1.4 1.3 2.5 3.6 2.5 5s-1.1 3.7-2.5 5c-2 2.1-3.4 2.5-8 2.5h-5.5v-15h5.5c4.6 0 6 0.4 8 2.5z"/>
<path d="m220.1 98.8c-1.9 0.9-4.8 3.4-6.5 5.5-2.9 3.6-3.1 4.4-3.1 12.1 0 7.5 0.3 8.6 2.8 11.9 3.9 5.1 9.3 7.7 16.1 7.7 3 0 6.7-0.5 8.3-1.1 3.3-1.2 9.3-6.8 9.3-8.6s-5.6-1.7-6.4 0.2c-0.9 2.6-6.9 5.5-11.1 5.5-15.3 0-20.3-22.3-6.5-29.2 6.2-3.1 14.5-1.6 17 3.2 1.2 2.3 7 2.9 7 0.7 0-1.8-6-7.4-9.3-8.6-4.4-1.7-13.7-1.3-17.6 0.7z"/>
<path d="m256 116.5v19.5h10c9.3 0 10-0.1 10-2 0-1.8-0.7-2-7.5-2h-7.5v-14h7.1c6.2 0 7-0.2 6.7-1.8-0.3-1.4-1.6-1.8-7.1-2l-6.7-0.3v-12.9h7.5c6.8 0 7.5-0.2 7.5-2 0-1.9-0.7-2-10-2h-10v19.5z"/>
<path d="m286.9 99.9c-2.3 2.4-2.9 3.8-2.9 7.4 0 6.2 2.1 8.5 10.4 10.7 7.8 2.2 10.6 4.2 10.6 7.7 0 3.8-3.4 6.3-8.5 6.3-4.1 0-4.8-0.4-6.3-3-1.1-1.9-2.5-3-3.9-3-3.1 0-3 3.1 0.1 6.7 2.1 2.4 3.2 2.8 9.4 3.1 6.8 0.4 7.3 0.3 10.1-2.6 7.4-7.3 4.5-15.7-6.3-18.3-8.6-2-10.6-3.5-10.6-8 0-5.9 9-8.3 12.8-3.4 2 2.5 7.2 3.6 7.2 1.4 0-4.5-5.7-7.9-13.5-7.9-4.9 0-6 0.4-8.6 2.9z"/>
<path class="st1" d="m8.6 164.6c-0.4 0.9-0.1 2.2 0.4 3 0.9 1 20.3 12.1 34.1 19.5 20.8 11 66.6 28.2 88.4 33.2 40.5 9.3 47.6 10.2 86 10.2 27.8 0 34.1-0.3 47.5-2.2 8.6-1.3 18.5-3 22-3.8 37.8-8.9 51-12.8 71.5-20.9 30.1-12 47.9-20.4 46.7-22.2-1.3-2-11.6-8-16.6-9.7-7-2.4-10.2-2.1-17.6 1.4-11 5.3-26 11.9-35.5 15.5-4.9 1.9-10.3 4.1-12 4.8-1.6 0.8-4.6 1.9-6.5 2.4s-10 3-18 5.5c-27.3 8.6-54.6 13.8-82.5 15.8-54.8 3.9-105.6-7-161.5-34.4-5.8-2.8-13.4-6.9-17-9.1-15.5-9.4-27.8-13.2-29.4-9z"/>
</svg>
